<?xml version="1.0" standalone="no"?>
<!DOCTYPE svg PUBLIC "-//W3C//DTD SVG 20010904//EN"
 "http://www.w3.org/TR/2001/REC-SVG-20010904/DTD/svg10.dtd">
<svg version="1.0" xmlns="http://www.w3.org/2000/svg"
 width="1000.000000pt" height="1000.000000pt" viewBox="0 0 1000.000000 1000.000000"
 preserveAspectRatio="xMidYMid meet">
<metadata>
Created by potrace 1.11, written by Peter Selinger 2001-2013
</metadata>
<g transform="translate(0.000000,1000.000000) scale(0.100000,-0.100000)"
fill="#000000" stroke="none">
<path d="M0 5000 l0 -5000 5000 0 5000 0 0 2855 c0 1570 -3 2855 -6 2855 -3 0
-44 -12 -90 -26 -47 -14 -89 -24 -94 -22 -6 2 35 16 90 32 l100 29 0 2138 0
2139 -5000 0 -5000 0 0 -5000z m4995 3910 c3 -5 2 -10 -4 -10 -5 0 -13 5 -16
10 -3 6 -2 10 4 10 5 0 13 -4 16 -10z m255 -140 c0 -5 -7 -10 -15 -10 -8 0
-15 5 -15 10 0 6 7 10 15 10 8 0 15 -4 15 -10z m48 -15 c-3 -3 -9 2 -12 12 -6
14 -5 15 5 6 7 -7 10 -15 7 -18z m-108 -75 c0 -5 -4 -10 -10 -10 -5 0 -10 5
-10 10 0 6 5 10 10 10 6 0 10 -4 10 -10z m-55 -108 c-3 -3 -11 0 -18 7 -9 10
-8 11 6 5 10 -3 15 -9 12 -12z m-431 -27 c-4 -8 -11 -15 -16 -15 -6 0 -5 6 2
15 7 8 14 15 16 15 2 0 1 -7 -2 -15z m526 -3 c0 -13 -12 -22 -22 -16 -10 6 -1
24 13 24 5 0 9 -4 9 -8z m-1402 -68 c-3 -14 -5 -12 -10 9 -3 19 -2 25 4 19 6
-6 8 -18 6 -28z m1372 21 c0 -8 -7 -15 -15 -15 -13 0 -14 3 -3 15 16 18 18 18
18 0z m-1179 -218 c102 -150 231 -301 428 -499 91 -92 169 -167 172 -168 11 0
17 36 8 52 -5 8 -17 56 -29 106 -26 118 -28 291 -5 405 18 87 99 269 134 301
19 17 19 17 1 -36 -83 -245 -60 -522 63 -763 l31 -60 7 65 c4 36 12 85 19 110
17 63 76 196 97 218 10 10 30 32 44 48 34 38 75 74 124 107 45 31 55 33 55 12
0 -10 -10 -15 -27 -15 -21 0 -24 -3 -15 -12 18 -18 14 -28 -11 -28 -35 0 -87
-62 -138 -167 -43 -87 -51 -210 -21 -309 23 -73 81 -170 131 -218 l30 -29 -6
121 c-4 82 -2 141 7 184 14 68 76 215 87 205 3 -4 1 -12 -4 -19 -13 -16 -14
-22 -20 -139 -5 -107 9 -179 54 -277 26 -58 73 -131 84 -132 3 0 12 19 18 43
19 61 77 185 106 223 14 18 25 36 25 39 0 16 131 165 144 165 3 0 -5 -15 -17
-33 -46 -67 -107 -204 -127 -281 -26 -101 -27 -237 -2 -283 9 -17 28 -53 41
-80 41 -82 155 -235 227 -304 38 -36 97 -80 131 -98 34 -18 69 -41 77 -50 21
-23 10 -54 -25 -75 -51 -30 -71 -85 -79 -221 -3 -66 -3 -137 0 -158 6 -31 5
-35 -6 -26 -22 18 -51 125 -64 234 -13 110 -32 165 -58 165 -9 0 -33 -19 -54
-42 -29 -33 -38 -38 -38 -24 0 10 -10 39 -22 63 -18 37 -27 44 -59 49 -35 6
-38 9 -41 42 -4 43 -29 63 -58 44 -11 -6 -22 -12 -24 -12 -2 0 -10 24 -16 53
-22 91 -39 107 -76 66 -18 -20 -18 -20 -39 25 -14 33 -24 43 -33 37 -13 -8
-42 -100 -42 -135 0 -10 31 -47 68 -82 83 -76 163 -195 203 -301 16 -43 29
-83 29 -89 0 -6 11 -20 23 -31 13 -11 30 -29 38 -39 8 -10 34 -37 59 -59 52
-45 115 -122 150 -180 l23 -40 -24 22 c-14 13 -52 58 -84 102 -33 43 -78 90
-100 105 -66 41 -121 108 -164 198 -61 128 -175 267 -243 296 -23 9 -28 9 -32
-6 -13 -49 16 -169 45 -188 5 -3 0 -17 -11 -32 -10 -15 -20 -40 -22 -57 -3
-25 3 -32 34 -50 21 -11 38 -22 38 -25 0 -12 -89 -9 -165 6 -120 23 -216 61
-365 145 -15 8 -35 22 -43 30 -8 8 -30 25 -48 39 -62 47 -109 93 -109 107 0 7
-8 13 -17 14 -11 0 -13 3 -5 6 6 2 10 10 6 16 -3 7 4 2 15 -11 11 -13 25 -21
31 -17 5 3 10 0 10 -7 0 -21 269 -168 307 -168 20 0 9 50 -21 99 -15 23 -25
45 -23 47 2 3 12 -8 22 -23 28 -42 36 -52 92 -110 66 -70 93 -70 109 -3 21 85
-22 334 -60 345 -6 2 -24 6 -41 10 l-30 7 25 11 c32 14 40 26 40 58 0 42 -115
181 -134 162 -3 -4 -12 1 -19 9 -8 11 -32 17 -77 20 -36 2 -67 5 -70 8 -3 3
-22 14 -42 24 -21 10 -55 34 -75 53 l-38 35 40 -20 c23 -11 59 -23 80 -27 22
-3 50 -8 63 -11 15 -3 31 4 47 20 20 21 25 35 25 78 -1 59 -10 80 -56 130 -61
65 -136 113 -216 140 -57 18 -89 17 -58 -2 25 -16 7 -19 -50 -8 -51 10 -281 5
-355 -8 -27 -4 -28 -4 -7 6 45 19 253 34 325 22 35 -5 60 -5 63 0 3 5 4 11 1
14 -2 3 -70 5 -150 5 -135 0 -267 -16 -267 -32 0 -3 -22 -9 -50 -13 -27 -4
-52 -12 -56 -18 -5 -7 5 -9 32 -5 l39 7 -39 -15 c-32 -12 -41 -13 -48 -3 -6
10 -11 11 -28 1 -11 -7 -25 -13 -31 -13 -35 0 -266 -130 -308 -174 -19 -20
-31 -36 -26 -36 5 0 -1 -9 -14 -21 -12 -12 -25 -18 -28 -15 -4 3 40 52 98 109
177 174 366 266 597 288 103 10 247 2 312 -17 22 -7 24 -6 12 9 -8 9 -11 20
-8 25 5 8 -36 61 -94 122 -8 9 -31 35 -50 59 -19 23 -43 52 -52 63 -10 12 -18
24 -18 27 0 3 -10 17 -22 31 -13 14 -41 48 -63 75 -21 28 -45 54 -52 58 -7 4
-13 17 -13 28 0 11 -4 18 -9 15 -5 -3 -21 11 -37 32 l-27 37 28 -25 28 -25
-29 45 c-43 65 -91 159 -119 234 -37 98 -30 101 15 8 21 -45 58 -110 81 -145z
m1089 173 c0 -5 -8 -10 -17 -10 -15 0 -16 2 -3 10 19 12 20 12 20 0z m-497
-45 c-3 -9 -8 -14 -10 -11 -3 3 -2 9 2 15 9 16 15 13 8 -4z m-719 -101 c3 -8
2 -12 -4 -9 -6 3 -10 10 -10 16 0 14 7 11 14 -7z m1411 6 c-3 -5 -10 -10 -16
-10 -5 0 -9 5 -9 10 0 6 7 10 16 10 8 0 12 -4 9 -10z m-155 -69 c-19 -16 -38
-27 -43 -24 -4 2 -15 -1 -23 -8 -8 -6 -17 -10 -20 -7 -5 6 95 67 111 67 6 0
-6 -13 -25 -28z m86 -21 c0 -12 -4 -16 -9 -11 -5 5 -6 14 -3 20 10 15 12 14
12 -9z m-31 -10 c-3 -5 -11 -10 -16 -10 -6 0 -7 5 -4 10 3 6 11 10 16 10 6 0
7 -4 4 -10z m-668 -42 c-3 -8 -6 -5 -6 6 -1 11 2 17 5 13 3 -3 4 -12 1 -19z
m497 7 c-10 -8 -23 -15 -28 -15 -6 0 -1 7 10 15 10 8 23 15 28 15 6 0 1 -7
-10 -15z m36 1 c0 -2 -8 -10 -17 -17 -16 -13 -17 -12 -4 4 13 16 21 21 21 13z
m-90 -40 c0 -2 -8 -10 -17 -17 -16 -13 -17 -12 -4 4 13 16 21 21 21 13z m-590
-636 c76 -14 171 -64 234 -120 53 -49 81 -97 67 -117 -10 -16 -51 -26 -51 -12
0 8 -11 9 -32 5 -20 -3 -28 -3 -20 3 10 6 -2 17 -42 39 -30 18 -70 48 -87 67
-18 19 -40 35 -50 35 -9 0 -19 5 -21 11 -6 19 -170 29 -287 17 -79 -7 -335
-69 -374 -89 -10 -6 -21 -9 -23 -6 -8 7 174 92 270 126 49 18 112 35 140 40
72 12 214 13 276 1z m-580 -60 c-8 -5 -19 -10 -25 -10 -5 0 -3 5 5 10 8 5 20
10 25 10 6 0 3 -5 -5 -10z m-80 -40 c-8 -5 -19 -10 -25 -10 -5 0 -3 5 5 10 8
5 20 10 25 10 6 0 3 -5 -5 -10z m-40 -74 c0 -2 -20 -16 -45 -31 -27 -15 -43
-31 -39 -37 4 -7 2 -8 -5 -4 -6 4 -18 0 -27 -8 -8 -9 -20 -16 -26 -16 -13 0
21 28 86 69 51 32 56 34 56 27z m636 -85 c-8 -13 -125 -53 -136 -46 -10 6
-142 -48 -175 -73 -16 -11 -16 -13 -2 -9 9 4 17 2 17 -3 0 -9 -7 -11 -52 -14
-9 -1 -20 -5 -24 -9 -5 -4 -1 -5 9 -1 37 14 14 -7 -50 -46 -38 -22 -84 -53
-103 -68 -19 -15 -29 -20 -22 -10 7 9 38 33 68 54 31 21 50 40 44 42 -6 2 -24
-8 -39 -22 -15 -14 -32 -26 -39 -26 -7 0 -12 -4 -12 -9 0 -5 -8 -12 -17 -15
-21 -7 -73 -50 -73 -61 0 -4 7 -4 16 -1 9 3 12 2 9 -5 -4 -5 -15 -7 -25 -4
-57 18 -282 -326 -279 -427 0 -22 1 -22 9 -3 10 23 13 5 4 -19 -3 -9 -10 -13
-16 -10 -6 4 -7 -21 -2 -66 4 -46 3 -71 -3 -67 -5 3 -9 -15 -9 -45 0 -35 2
-45 8 -32 5 12 7 -3 4 -38 -3 -35 0 -58 6 -60 6 -2 11 -25 12 -50 1 -27 4 -41
9 -35 5 7 6 0 3 -15 -4 -16 -2 -28 3 -28 5 0 14 -14 20 -30 5 -17 6 -28 2 -25
-5 3 -7 -4 -4 -15 3 -10 10 -18 17 -17 6 1 11 -7 11 -18 1 -26 15 -68 22 -61
3 3 24 -21 48 -53 38 -51 107 -117 200 -189 17 -13 24 -20 16 -16 -9 5 -12 3
-7 -5 4 -6 12 -8 18 -5 6 4 16 0 22 -8 6 -8 16 -17 21 -19 6 -2 9 -7 8 -11 -2
-4 5 -4 14 -1 11 4 14 3 9 -6 -4 -6 -4 -10 1 -9 17 4 53 -14 47 -24 -4 -7 -2
-8 4 -4 6 4 28 -2 49 -13 21 -11 34 -20 30 -21 -5 0 -17 5 -28 10 -10 6 -19 8
-19 5 0 -11 153 -76 280 -120 219 -74 443 -115 749 -135 91 -6 166 -12 168
-14 3 -3 -109 -23 -172 -31 -74 -9 -99 -16 -84 -26 11 -7 10 -9 -3 -9 -37 0
-14 -17 105 -75 67 -32 157 -83 200 -112 43 -29 82 -53 87 -53 6 0 10 -4 10
-8 0 -5 17 -21 37 -35 45 -32 39 -34 -25 -6 -128 57 -272 93 -496 124 -75 10
-213 58 -323 112 -54 26 -102 50 -107 52 -5 2 -6 -5 -2 -15 4 -10 -9 -1 -28
21 -35 40 -44 37 -36 -14 7 -52 257 -371 291 -371 5 0 9 -4 9 -10 0 -9 -14 -7
-55 10 -38 15 -190 93 -215 109 -14 10 -45 28 -70 40 -25 13 -69 42 -98 64
-29 23 -64 49 -77 57 -20 14 -81 66 -176 151 -15 13 -45 41 -68 61 -22 21 -41
41 -41 45 -1 4 -24 33 -52 63 l-51 55 6 -60 c4 -40 3 -55 -4 -45 -5 8 -8 39
-7 68 1 38 -3 57 -15 69 -15 15 -17 15 -23 -1 -29 -75 56 -277 161 -380 35
-34 47 -50 28 -37 -17 11 -34 21 -38 21 -4 0 -18 10 -31 23 -53 52 -83 77 -94
77 -6 0 -9 3 -6 8 2 4 -16 30 -41 57 -115 127 -273 411 -273 490 0 18 -16 20
-23 3 -3 -7 -3 3 0 23 3 20 1 45 -5 55 -22 39 -90 -144 -112 -299 -11 -81 -10
-104 6 -154 5 -15 4 -15 -5 -3 -9 13 -11 13 -11 -2 0 -10 -4 -18 -10 -18 -5 0
-10 2 -10 4 0 1 -13 57 -29 122 -53 214 -66 321 -66 534 0 178 7 252 31 314 5
14 4 17 -5 11 -8 -4 -6 3 4 18 9 14 15 38 13 54 -3 27 -4 27 -60 -32 -31 -33
-73 -84 -92 -112 -56 -82 -116 -208 -117 -245 0 -18 -3 -26 -6 -18 -4 10 -10
4 -19 -20 l-12 -35 -1 45 c-1 58 24 212 49 301 29 107 110 265 177 349 60 76
145 150 237 209 31 19 43 31 31 31 -17 0 -17 1 1 21 l19 22 -110 -8 c-60 -4
-121 -12 -135 -17 -14 -5 -34 -11 -45 -13 -53 -10 -100 -25 -103 -34 -2 -6
-12 -11 -23 -11 -37 0 -96 -39 -149 -97 -45 -49 -47 -50 -16 -10 40 51 40 57
-2 30 -27 -18 -27 -18 5 23 155 198 524 377 914 443 118 20 275 36 489 50 69
5 126 9 128 10 2 0 1 -3 -2 -8z m-166 -71 c-20 -13 -33 -13 -25 0 3 6 14 10
23 10 15 0 15 -2 2 -10z m281 -38 c-12 -2 -21 -7 -21 -12 0 -4 -14 -13 -30
-19 -92 -32 -255 -181 -340 -311 -27 -41 -55 -82 -62 -90 -7 -9 -15 -25 -16
-35 -8 -43 -12 -24 -13 61 -1 49 -1 95 0 102 3 20 -27 62 -45 62 -19 0 -64
-29 -64 -42 0 -6 7 -7 15 -4 39 16 47 16 20 0 -16 -9 -43 -28 -59 -43 -16 -14
-26 -20 -22 -13 4 6 2 12 -3 12 -11 0 -98 -105 -108 -130 -4 -8 -18 -31 -33
-50 -28 -36 -50 -97 -30 -85 7 4 7 -2 0 -20 -13 -35 -13 -35 8 -35 10 0 37 16
59 35 23 19 43 35 46 35 2 0 7 -28 11 -61 10 -102 39 -114 126 -49 29 22 54
40 55 40 1 0 -3 -15 -9 -34 -7 -23 -13 -31 -19 -23 -5 7 -5 -2 -2 -20 4 -19 2
-33 -3 -33 -14 0 -2 -125 19 -194 10 -33 15 -64 12 -69 -3 -6 -1 -7 5 -3 11 7
45 -46 37 -58 -3 -3 -2 -4 2 -1 7 6 39 -36 35 -47 -1 -5 3 -7 9 -5 6 1 14 -4
17 -12 3 -8 0 -11 -7 -7 -18 12 -12 0 11 -20 21 -19 21 -19 14 1 -6 16 -2 15
21 -7 24 -23 89 -58 108 -58 3 0 13 16 21 35 18 43 18 169 0 253 l-14 62 24 0
c53 0 80 68 73 179 l-4 51 33 0 c46 0 72 16 72 45 0 14 5 25 10 25 6 0 10 -5
10 -11 0 -5 4 -8 9 -4 6 3 18 -3 28 -13 10 -10 31 -26 46 -35 15 -10 25 -22
22 -26 -2 -5 30 -21 73 -36 92 -33 151 -62 213 -107 73 -52 158 -122 154 -126
-4 -5 -39 14 -57 30 -18 18 -100 62 -168 92 -46 19 -106 32 -177 38 -17 1 -29
6 -27 10 3 4 -3 8 -14 8 -15 0 -19 -9 -21 -52 -1 -29 -7 -55 -13 -59 -7 -4 -7
-9 1 -13 6 -4 23 2 37 13 l26 20 39 -19 c21 -11 39 -27 39 -36 0 -8 5 -12 10
-9 6 3 10 1 10 -6 0 -7 12 -27 28 -43 l27 -31 -32 29 c-50 45 -49 25 1 -33 56
-67 100 -149 120 -227 18 -69 22 -239 6 -249 -5 -3 -10 -13 -10 -21 0 -12 4
-12 20 -4 21 11 23 10 14 -13 -3 -8 -13 -13 -23 -10 -14 3 -21 -4 -29 -26 -6
-17 -12 -31 -14 -31 -2 0 -2 46 0 103 3 65 -1 118 -9 147 -7 25 -14 52 -15 60
-3 22 -20 59 -54 115 -16 28 -33 56 -36 62 -14 29 -73 85 -83 79 -7 -5 -8 -1
-4 10 4 12 3 15 -5 10 -7 -4 -12 -14 -12 -22 0 -8 -8 -14 -17 -14 -13 0 -14
-3 -5 -12 7 -7 12 -17 12 -23 0 -5 -5 -3 -10 5 -9 13 -11 13 -20 0 -14 -21
-12 -33 3 -27 7 3 13 -3 13 -13 0 -10 -6 -16 -13 -13 -18 7 -16 0 7 -40 11
-18 29 -60 41 -93 18 -51 19 -73 14 -164 -7 -110 -21 -206 -24 -160 -1 20 -6
15 -26 -27 -14 -29 -26 -53 -28 -53 -2 0 2 33 9 73 16 87 17 191 4 270 -11 67
-50 153 -68 150 -7 -2 -12 7 -12 19 0 28 -20 10 -23 -20 -1 -17 -4 -19 -20
-10 -10 5 -20 8 -21 6 -1 -2 -7 -14 -14 -28 -10 -22 -11 -20 -7 20 l5 45 -20
-42 c-35 -73 -36 -194 -3 -307 11 -37 -18 -4 -39 45 -12 27 -25 44 -28 38 -4
-6 -10 11 -14 38 -11 85 -28 87 -22 3 6 -88 30 -168 58 -192 34 -30 6 -20 -74
26 -176 100 -308 214 -390 338 -51 76 -108 197 -108 230 -1 8 -7 6 -17 -7
l-16 -20 8 20 c11 29 18 75 11 75 -17 0 -38 -68 -37 -127 0 -67 17 -137 30
-129 4 3 17 -16 29 -42 13 -26 16 -38 7 -28 -8 11 -15 15 -15 8 0 -6 11 -19
26 -28 14 -9 23 -23 20 -30 -3 -7 3 -18 12 -26 16 -12 16 -11 3 7 -8 11 5 -2
29 -30 24 -27 84 -90 134 -139 101 -99 98 -102 -14 -12 -286 231 -420 459
-408 692 5 82 9 100 46 175 70 143 200 273 406 407 108 70 287 164 320 167 36
4 37 5 32 14 -4 5 2 7 11 5 10 -2 43 7 73 19 50 21 56 22 68 8 11 -14 10 -16
-7 -19z m-361 3 c-14 -8 -29 -14 -35 -14 -5 0 1 6 15 14 14 8 30 14 35 14 6 0
-1 -6 -15 -14z m-391 -269 c-19 -18 -36 -32 -38 -30 -6 6 51 64 62 64 6 0 -5
-15 -24 -34z m-49 -49 c0 -2 -10 -12 -22 -23 l-23 -19 19 23 c18 21 26 27 26
19z m-443 -13 c-3 -3 -12 -4 -19 -1 -8 3 -5 6 6 6 11 1 17 -2 13 -5z m-50 -10
c-3 -3 -12 -4 -19 -1 -8 3 -5 6 6 6 11 1 17 -2 13 -5z m-50 -10 c-3 -3 -12 -4
-19 -1 -8 3 -5 6 6 6 11 1 17 -2 13 -5z m503 -18 c0 -2 -8 -10 -17 -17 -16
-13 -17 -12 -4 4 13 16 21 21 21 13z m165 -40 c-37 -48 -42 -46 -9 4 15 22 29
38 31 36 3 -3 -7 -21 -22 -40z m-756 30 c-8 -8 -79 -35 -79 -30 0 6 60 33 74
34 5 0 7 -2 5 -4z m545 -51 c-9 -14 -18 -25 -21 -25 -5 0 5 18 20 38 17 22 18
13 1 -13z m901 5 c10 -11 14 -20 8 -20 -5 0 -18 9 -28 20 -10 11 -14 20 -8 20
5 0 18 -9 28 -20z m-1535 6 c0 -2 -7 -7 -16 -10 -8 -3 -12 -2 -9 4 6 10 25 14
25 6z m-60 -30 c0 -2 -12 -11 -27 -20 l-28 -17 24 20 c23 21 31 25 31 17z
m870 -10 c0 -2 -8 -10 -17 -17 -16 -13 -17 -12 -4 4 13 16 21 21 21 13z m-51
-73 c-12 -21 -27 -42 -32 -48 -11 -11 9 29 31 63 24 37 25 25 1 -15z m-930 1
c-17 -21 -31 -17 -19 6 6 11 15 18 21 14 6 -4 6 -11 -2 -20z m908 -551 c-2
-16 -4 -3 -4 27 0 30 2 43 4 28 2 -16 2 -40 0 -55z m1090 0 c19 -30 33 -56 31
-58 -1 -2 -22 26 -44 61 -23 35 -37 61 -32 58 5 -4 25 -31 45 -61z m3533 47
c0 -5 -2 -10 -4 -10 -3 0 -8 5 -11 10 -3 6 -1 10 4 10 6 0 11 -4 11 -10z
m-5329 -103 c-10 -9 -11 -8 -5 6 3 10 9 15 12 12 3 -3 0 -11 -7 -18z m1858
-82 c0 -13 -5 -8 -14 15 -18 46 -18 61 0 30 8 -14 14 -34 14 -45z m3421 1 c0
-2 -8 -10 -17 -17 -16 -13 -17 -12 -4 4 13 16 21 21 21 13z m-3913 -53 c-3
-10 -5 -4 -5 12 0 17 2 24 5 18 2 -7 2 -21 0 -30z m271 -123 l-1 -85 -7 95
c-4 52 -9 109 -13 125 -4 18 -1 14 7 -10 9 -23 14 -76 14 -125z m2927 138 c12
-11 -42 0 -65 14 -10 6 -3 7 20 2 19 -3 40 -10 45 -16z m1024 -11 c-14 -12
-179 -74 -179 -67 0 4 12 13 28 19 15 6 54 21 87 35 33 13 62 22 64 20 2 -2 2
-6 0 -7z m321 3 c-8 -5 -19 -10 -25 -10 -5 0 -3 5 5 10 8 5 20 10 25 10 6 0 3
-5 -5 -10z m-5963 -42 c-3 -8 -6 -5 -6 6 -1 11 2 17 5 13 3 -3 4 -12 1 -19z
m5700 -70 c3 -31 1 -39 -7 -28 -11 16 -14 88 -4 77 4 -4 9 -26 11 -49z m-4277
17 c0 -8 -2 -15 -4 -15 -2 0 -6 7 -10 15 -3 8 -1 15 4 15 6 0 10 -7 10 -15z
m4667 -21 c-3 -3 -12 -4 -19 -1 -8 3 -5 6 6 6 11 1 17 -2 13 -5z m-47 -14 c-8
-5 -19 -10 -25 -10 -5 0 -3 5 5 10 8 5 20 10 25 10 6 0 3 -5 -5 -10z m-43 -16
c-3 -3 -12 -4 -19 -1 -8 3 -5 6 6 6 11 1 17 -2 13 -5z m-47 -14 c-8 -5 -26 -9
-40 -9 -23 0 -23 1 -5 9 11 5 29 9 40 9 17 1 17 -1 5 -9z m-4603 -22 c-3 -8
-6 -5 -6 6 -1 11 2 17 5 13 3 -3 4 -12 1 -19z m83 7 c0 -8 -2 -15 -4 -15 -2 0
-6 7 -10 15 -3 8 -1 15 4 15 6 0 10 -7 10 -15z m-989 -52 c-12 -20 -14 -14 -5
12 4 9 9 14 11 11 3 -2 0 -13 -6 -23z m4119 2 c14 -19 14 -19 -2 -6 -10 7 -18
18 -18 24 0 6 1 8 3 6 1 -2 9 -13 17 -24z m-2885 -45 c-4 -23 -9 -39 -11 -37
-3 2 -2 23 2 46 4 23 9 40 11 37 3 -3 2 -23 -2 -46z m4705 35 c-24 -8 -46 -12
-49 -10 -7 7 42 24 69 24 17 0 11 -5 -20 -14z m-4858 -120 l10 -20 -18 20
c-11 11 -27 34 -37 50 l-18 30 26 -30 c14 -16 31 -39 37 -50z m4798 55 c-58
-25 -87 -24 -35 1 22 10 49 18 60 18 12 0 1 -8 -25 -19z m-4429 -21 c-9 -22
-10 -22 -10 -3 -1 11 2 24 6 27 12 12 14 0 4 -24z m-486 11 c3 -5 1 -10 -4
-10 -6 0 -11 5 -11 10 0 6 2 10 4 10 3 0 8 -4 11 -10z m4364 -38 c-10 -44 -38
-116 -44 -110 -7 7 40 148 49 148 2 0 0 -17 -5 -38z m-5362 -14 c-3 -7 -5 -2
-5 12 0 14 2 19 5 13 2 -7 2 -19 0 -25z m5073 -28 c-8 -5 -22 -9 -30 -9 -10 0
-8 3 5 9 27 12 43 12 25 0z m-3857 -20 c-3 -12 -8 -19 -11 -16 -5 6 5 36 12
36 2 0 2 -9 -1 -20z m1834 -32 c-3 -7 -5 -2 -5 12 0 14 2 19 5 13 2 -7 2 -19
0 -25z m-2257 12 c8 -5 11 -10 5 -10 -5 0 -17 5 -25 10 -8 5 -10 10 -5 10 6 0
17 -5 25 -10z m-780 -270 c6 -22 15 -40 20 -40 6 0 10 -11 10 -24 0 -19 28
-59 31 -45 2 10 7 75 13 184 4 66 10 131 13 145 5 24 6 23 23 -15 l19 -40 0
34 c1 19 4 31 8 27 4 -3 6 -25 5 -47 -2 -29 5 -54 27 -92 41 -72 151 -210 207
-261 l47 -43 -12 -64 c-7 -35 -15 -73 -17 -84 -3 -11 -7 -94 -10 -185 -6 -145
-4 -163 9 -152 18 16 28 50 16 58 -27 16 23 54 73 54 9 0 18 6 21 13 9 24 142
125 197 150 90 41 100 43 230 50 73 4 82 4 40 -3 -149 -23 -211 -54 -329 -167
-64 -61 -81 -82 -81 -105 0 -20 -7 -31 -22 -38 -13 -5 -19 -9 -14 -9 5 -1 1
-10 -10 -22 -18 -20 -18 -20 11 -14 50 11 57 14 50 25 -3 6 1 7 10 4 9 -4 24
1 35 11 15 14 17 22 9 42 -10 26 -5 35 52 92 25 26 92 77 119 91 29 15 25 11
-55 -55 -84 -69 -107 -96 -100 -120 2 -11 5 -27 5 -36 0 -15 4 -15 38 2 50 25
179 49 250 48 32 -1 45 -4 30 -6 -16 -2 -28 -9 -28 -15 0 -5 -7 -8 -15 -4 -8
3 -15 1 -15 -4 0 -5 -17 -14 -38 -19 -21 -6 -48 -20 -60 -31 -11 -11 -29 -20
-39 -21 -15 0 -14 -2 5 -11 18 -9 32 -6 76 15 69 34 87 35 24 1 -27 -13 -48
-31 -48 -39 0 -9 -6 -12 -17 -8 -14 5 -15 3 -6 -7 6 -7 9 -18 7 -25 -3 -6 11
-29 31 -50 19 -22 35 -43 35 -48 0 -5 7 -7 15 -3 8 3 15 1 15 -4 0 -6 -6 -10
-12 -10 -9 0 -9 -3 1 -9 8 -5 21 -7 29 -4 8 3 17 2 21 -3 10 -14 49 -34 68
-35 16 0 15 -2 -2 -9 -17 -7 -11 -12 41 -37 69 -33 75 -57 13 -47 -35 6 -39 5
-33 -12 13 -43 35 -93 68 -163 14 -30 26 -62 26 -71 0 -9 9 -35 20 -58 11 -22
20 -45 20 -51 0 -5 6 -12 13 -14 9 -4 9 -8 -2 -15 -12 -9 -12 -18 1 -64 14
-51 10 -106 -6 -80 -11 18 -26 14 -26 -7 0 -22 57 -70 185 -158 53 -36 75 -59
75 -78 0 -8 9 -15 20 -15 14 0 20 -7 20 -24 0 -20 -4 -23 -21 -19 -19 5 -20 3
-14 -43 4 -27 13 -62 21 -78 23 -48 17 -65 -10 -31 -14 17 -21 34 -17 38 9 9
-11 75 -25 86 -15 10 -34 50 -34 69 0 11 -9 27 -20 37 -24 21 -28 2 -5 -21 8
-9 15 -21 14 -27 0 -9 -2 -8 -6 1 -2 6 -11 12 -18 12 -7 0 -15 6 -18 14 -4 9
-14 12 -25 9 -26 -6 -66 32 -57 55 3 9 3 13 -1 10 -3 -4 -23 15 -44 41 -41 51
-98 102 -133 118 -12 6 -34 16 -49 23 -35 17 -40 12 -29 -26 8 -28 30 -56 122
-158 25 -28 44 -57 42 -63 -3 -7 2 -13 10 -13 9 0 23 -7 32 -16 15 -16 14 -19
-17 -49 -40 -39 -53 -44 -173 -61 -63 -9 -69 -12 -55 -29 8 -10 9 -15 2 -15
-6 0 -13 4 -16 9 -3 5 -16 7 -28 3 -12 -3 -19 -1 -15 4 3 5 -12 8 -35 6 -28
-3 -39 -1 -34 7 4 6 30 11 58 11 29 0 65 4 82 9 17 6 47 14 66 19 20 5 34 14
32 22 -2 8 3 10 13 7 19 -8 19 3 0 30 -9 12 -14 28 -13 35 2 10 -33 15 -157
20 -240 11 -500 35 -560 52 -11 4 -6 0 10 -8 49 -24 4 -18 -48 7 l-49 22 99 3
c54 1 102 7 107 12 6 6 18 10 27 10 9 0 21 6 27 13 13 15 4 67 -12 67 -6 0
-17 9 -23 19 -20 31 -109 36 -234 12 -168 -33 -287 -82 -411 -168 -26 -18 -52
-33 -57 -33 -5 0 -12 -6 -14 -12 -3 -8 -6 -6 -6 5 -1 9 3 17 9 17 5 0 2 9 -7
20 -10 11 -25 20 -34 20 -20 0 -65 -35 -79 -61 -10 -17 -8 -18 17 -8 27 10 27
10 8 -11 -10 -11 -15 -23 -12 -27 10 -9 48 28 45 45 -2 8 7 18 18 22 18 7 21
5 17 -11 -3 -10 -9 -16 -14 -14 -4 3 -6 -3 -4 -14 2 -14 -1 -18 -10 -15 -15 6
-39 -31 -30 -46 3 -6 3 -10 -2 -10 -4 0 -13 -10 -19 -23 -6 -12 -23 -43 -37
-68 -46 -82 -77 -191 -83 -297 -5 -84 -4 -101 11 -115 9 -9 19 -34 22 -54 3
-21 9 -43 14 -48 7 -10 17 -53 18 -87 1 -9 8 -24 17 -32 9 -9 11 -16 4 -16 -6
0 1 -12 16 -27 25 -25 26 -27 8 -34 -10 -3 -22 -1 -26 5 -5 6 -8 1 -8 -13 0
-13 3 -21 7 -18 10 10 45 -53 39 -70 -3 -8 -1 -11 4 -8 6 4 8 -10 4 -38 -6
-39 0 -57 53 -168 33 -68 67 -130 76 -138 10 -7 17 -18 17 -23 0 -5 18 -27 40
-49 22 -22 40 -45 40 -50 0 -14 119 -130 184 -179 59 -45 67 -53 39 -43 -17 6
-17 5 -2 -13 9 -10 19 -27 23 -38 6 -17 3 -18 -30 -13 -42 7 -75 31 -35 25 20
-2 24 1 25 25 2 34 -26 57 -64 56 -22 -1 -22 -2 8 -10 19 -6 32 -16 32 -26 0
-13 -3 -14 -12 -5 -7 7 -21 12 -32 12 -17 0 -18 -2 -6 -10 8 -5 12 -10 8 -10
-16 0 -78 49 -68 55 5 3 14 4 19 1 5 -4 20 -2 33 3 12 6 17 10 10 10 -7 1 -10
6 -7 11 3 5 2 10 -3 10 -6 0 -26 16 -46 36 -23 23 -43 35 -54 31 -15 -3 -18 1
-15 17 2 11 -5 32 -16 45 -15 20 -29 25 -74 27 -62 3 -97 11 -97 23 0 7 -30
49 -73 101 -7 8 -29 42 -49 76 -139 227 -204 493 -180 729 6 60 8 115 4 122
-11 19 -68 -39 -95 -95 -22 -47 -22 -47 -25 -17 -3 35 55 211 100 300 37 73
129 199 163 221 31 20 33 38 3 28 -20 -6 -21 -5 -9 10 21 25 4 19 -37 -13 -20
-16 -48 -32 -62 -36 -38 -12 72 79 147 121 34 19 65 39 68 44 5 9 34 23 120
60 11 4 29 11 40 15 19 6 19 7 -5 25 -30 23 -30 23 -103 6 -69 -16 -87 -4 -19
14 26 7 75 21 110 32 49 15 91 20 195 20 116 1 128 2 102 13 -16 7 -54 16 -83
20 -48 6 -52 8 -35 20 17 13 17 14 -7 19 -14 3 -40 7 -59 8 -34 3 -58 28 -26
28 9 0 13 4 10 10 -3 6 1 7 9 4 9 -3 16 -2 16 3 0 5 9 9 19 9 11 0 17 -4 15
-8 -3 -4 -2 -9 3 -9 13 -2 46 -2 68 0 17 1 18 3 5 11 -11 7 -7 10 20 11 19 1
44 1 54 0 18 -1 18 0 3 17 -9 10 -17 24 -17 30 0 16 -38 35 -56 28 -9 -3 -12
-1 -9 4 4 6 -10 10 -34 10 -23 0 -41 5 -41 10 0 6 23 10 51 10 31 0 48 -4 44
-10 -9 -14 8 -12 30 3 12 10 14 16 7 21 -7 4 -12 2 -12 -4 0 -8 -6 -8 -20 0
-27 14 -15 33 16 26 28 -7 33 8 7 19 -17 6 -17 7 -2 18 9 7 18 21 21 32 3 15
11 19 31 17 15 -2 27 2 27 9 0 6 -7 9 -15 5 -8 -3 -15 -1 -15 5 0 7 -10 9 -24
5 -14 -3 -28 -1 -32 5 -9 16 18 30 33 17 9 -7 17 -7 28 2 17 14 35 5 35 -18 0
-10 9 -23 20 -30 17 -10 20 -10 20 3 0 8 -7 15 -15 15 -8 0 -15 7 -15 16 0 13
7 15 30 11 38 -8 47 7 13 22 -21 9 -28 9 -34 0 -6 -10 -11 -10 -23 0 -12 10
-14 17 -5 27 6 8 16 11 22 7 6 -3 7 -1 3 6 -4 6 -16 9 -26 6 -12 -4 -22 0 -28
12 -12 22 -5 43 14 43 17 0 18 22 2 38 -7 7 -8 12 -3 12 12 0 75 -62 75 -74 0
-5 -9 -1 -19 8 -18 17 -22 17 -43 2 l-22 -16 29 -1 c17 -1 40 -3 52 -4 29 -3
59 18 48 35 -6 10 -9 10 -15 0 -4 -7 -15 -10 -24 -7 -19 7 -22 28 -3 23 6 -1
9 -1 4 1 -4 3 -4 9 -1 15 4 6 -2 8 -17 3 -19 -6 -22 -5 -12 6 10 10 7 17 -12
35 -14 13 -25 26 -25 30 0 3 -13 23 -30 44 -16 21 -30 42 -30 48 0 6 -4 12 -9
14 -29 11 -130 246 -146 343 l-7 40 33 -49 c28 -41 34 -45 40 -30 5 16 7 13
13 -12 4 -17 18 -42 32 -54 29 -28 32 -10 6 28 -32 45 -35 58 -8 27 29 -35 32
-30 11 22 -23 62 -62 232 -74 323 -14 116 -15 181 -5 275 l8 80 8 -108 c4 -59
12 -125 18 -147z m915 220 c13 -6 15 -9 5 -9 -8 0 -22 4 -30 9 -18 12 -2 12
25 0z m4075 6 c0 -2 -18 -6 -40 -8 -22 -2 -40 0 -40 4 0 5 18 8 40 8 22 0 40
-2 40 -4z m-4963 -108 c-2 -13 -4 -5 -4 17 -1 22 1 32 4 23 2 -10 2 -28 0 -40z
m147 36 c3 -8 2 -12 -4 -9 -6 3 -10 10 -10 16 0 14 7 11 14 -7z m2656 12 c0
-2 -7 -7 -16 -10 -8 -3 -12 -2 -9 4 6 10 25 14 25 6z m1430 -51 c13 -14 21
-25 18 -25 -2 0 -15 11 -28 25 -13 14 -21 25 -18 25 2 0 15 -11 28 -25z m1775
15 c-11 -5 -29 -9 -40 -9 l-20 0 20 9 c11 5 29 9 40 9 l20 0 -20 -9z m-1298
-22 c-3 -8 -6 -5 -6 6 -1 11 2 17 5 13 3 -3 4 -12 1 -19z m-4261 -95 c-6 -6
-43 58 -50 87 -4 14 7 1 23 -29 17 -30 29 -56 27 -58z m941 101 c-3 -3 -12 -4
-19 -1 -8 3 -5 6 6 6 11 1 17 -2 13 -5z m1593 2 c0 -2 -7 -9 -15 -16 -13 -11
-14 -10 -9 4 5 14 24 23 24 12z m2953 -3 c-7 -2 -19 -2 -25 0 -7 3 -2 5 12 5
14 0 19 -2 13 -5z m-4455 -10 c-10 -2 -28 -2 -40 0 -13 2 -5 4 17 4 22 1 32
-1 23 -4z m115 -10 c-13 -2 -33 -2 -45 0 -13 2 -3 4 22 4 25 0 35 -2 23 -4z
m2019 -53 c3 -16 1 -30 -4 -30 -4 0 -8 14 -8 30 0 17 2 30 4 30 2 0 6 -13 8
-30z m-3625 -12 c-3 -8 -6 -5 -6 6 -1 11 2 17 5 13 3 -3 4 -12 1 -19z m264
-45 c23 -32 36 -53 28 -46 -17 14 -83 103 -76 103 3 0 24 -26 48 -57z m244
-35 c16 -24 22 -38 14 -31 -15 12 -53 73 -46 73 2 0 17 -19 32 -42z m3245 38
c0 -2 -11 -6 -25 -8 -13 -3 -22 -1 -19 3 5 9 44 13 44 5z m1720 -20 c0 -6
-123 -47 -127 -42 -4 4 96 43 115 45 6 0 12 -1 12 -3z m-1467 -42 c28 -38 16
-36 -17 3 -15 18 -22 31 -15 28 8 -3 22 -17 32 -31z m892 26 c-3 -5 -18 -10
-33 -9 l-27 1 25 8 c35 11 42 11 35 0z m-938 -42 c-3 -7 -5 -2 -5 12 0 14 2
19 5 13 2 -7 2 -19 0 -25z m866 25 c-7 -2 -19 -2 -25 0 -7 3 -2 5 12 5 14 0
19 -2 13 -5z m-2610 -57 c141 -26 319 -91 507 -183 96 -48 181 -93 188 -100 8
-7 35 -27 60 -45 57 -39 60 -41 95 -72 28 -24 28 -25 7 -36 -11 -6 -18 -15
-16 -19 3 -4 -1 -8 -8 -8 -7 0 -13 6 -13 14 0 7 6 13 14 13 15 0 16 9 4 29 -5
8 -18 12 -30 8 -12 -3 -19 0 -18 6 1 6 -5 12 -13 12 -8 1 -31 8 -50 17 -37 16
-100 33 -112 30 -5 -1 -8 2 -8 6 0 5 -6 9 -12 9 -7 0 -22 4 -33 8 -17 6 -17 5
3 -9 27 -21 20 -41 -9 -26 -34 18 -20 1 19 -24 20 -13 68 -53 105 -90 37 -36
72 -66 77 -66 6 0 10 -6 10 -14 0 -8 11 -24 25 -37 22 -20 45 -55 135 -199 5
-8 21 -42 36 -75 15 -33 29 -64 32 -70 3 -5 -3 -3 -14 5 -49 38 -94 52 -94 28
0 -21 -15 3 -27 45 -12 40 -12 38 -7 -35 4 -64 2 -78 -10 -78 -8 0 -16 5 -18
12 -3 7 -12 9 -22 5 -10 -4 -14 -12 -10 -18 4 -8 3 -9 -4 -5 -7 4 -12 16 -12
27 0 10 -4 19 -9 19 -5 0 -12 21 -16 46 -19 131 -111 303 -227 429 -21 22 -38
43 -38 47 0 4 -13 15 -30 25 -16 9 -30 22 -30 28 -1 12 -106 91 -169 125 -25
14 -53 30 -61 35 -8 5 -17 10 -20 10 -3 0 -17 9 -32 19 -15 10 -32 15 -38 11
-5 -3 -10 -1 -10 4 0 12 -243 131 -266 131 -4 0 -29 8 -54 18 l-45 17 45 5
c25 3 65 0 90 -6 25 -7 85 -19 133 -28z m1447 14 c-8 -5 -17 -7 -19 -4 -3 3 1
9 9 14 8 5 17 7 19 4 3 -3 -1 -9 -9 -14z m-3238 -85 c17 -23 -4 -15 -29 12
-60 62 -76 86 -28 43 27 -25 53 -49 57 -55z m3545 53 c-3 -7 -5 -2 -5 12 0 14
2 19 5 13 2 -7 2 -19 0 -25z m-307 -2 c0 -2 -7 -6 -15 -10 -8 -3 -15 -1 -15 4
0 6 7 10 15 10 8 0 15 -2 15 -4z m-3035 -57 c20 -24 20 -24 0 -9 -11 8 -29 23
-40 34 l-20 18 20 -10 c11 -6 29 -21 40 -33z m4002 -21 c-3 -8 -6 -5 -6 6 -1
11 2 17 5 13 3 -3 4 -12 1 -19z m1062 -18 c0 -10 -3 -8 -9 5 -12 27 -12 43 0
25 5 -8 9 -22 9 -30z m-1102 24 c-3 -3 -12 -4 -19 -1 -8 3 -5 6 6 6 11 1 17
-2 13 -5z m-4126 -96 c-16 -92 -23 -110 -15 -38 4 30 7 72 8 92 1 22 5 33 10
28 6 -6 4 -38 -3 -82z m4074 82 c-11 -5 -27 -9 -35 -9 -9 0 -8 4 5 9 11 5 27
9 35 9 9 0 8 -4 -5 -9z m-58 -16 c-3 -3 -12 -4 -19 -1 -8 3 -5 6 6 6 11 1 17
-2 13 -5z m-27 -24 c-8 -5 -22 -9 -30 -9 -10 0 -8 3 5 9 27 12 43 12 25 0z
m1247 -22 c-3 -7 -5 -2 -5 12 0 14 2 19 5 13 2 -7 2 -19 0 -25z m823 13 c-19
-10 -125 -23 -116 -14 6 6 73 18 116 21 13 1 13 0 0 -7z m68 2 c-10 -2 -26 -2
-35 0 -10 3 -2 5 17 5 19 0 27 -2 18 -5z m-3248 -23 c-8 -5 -19 -10 -25 -10
-5 0 -3 5 5 10 8 5 20 10 25 10 6 0 3 -5 -5 -10z m1457 4 c-3 -3 -12 -4 -19
-1 -8 3 -5 6 6 6 11 1 17 -2 13 -5z m-2446 -65 c-11 -24 -20 -41 -20 -37 -1
12 31 89 35 85 3 -2 -4 -24 -15 -48z m919 31 c-19 -11 -39 -19 -45 -19 -5 0 6
8 25 19 19 11 40 19 45 19 6 0 -6 -8 -25 -19z m1113 13 c-7 -2 -19 -2 -25 0
-7 3 -2 5 12 5 14 0 19 -2 13 -5z m527 -10 c-46 -7 -98 -8 -92 -1 9 8 83 15
97 8 6 -2 3 -6 -5 -7z m-1923 -9 c-3 -3 -12 -4 -19 -1 -8 3 -5 6 6 6 11 1 17
-2 13 -5z m1796 -1 c-7 -2 -21 -2 -30 0 -10 3 -4 5 12 5 17 0 24 -2 18 -5z
m-4810 -39 c13 -26 14 -31 1 -31 -8 0 -14 8 -14 18 0 9 -3 26 -7 36 -9 26 2
14 20 -23z m3877 31 c0 -7 -81 -47 -86 -43 -2 3 15 14 39 26 46 24 47 24 47
17z m833 -2 c-13 -2 -33 -2 -45 0 -13 2 -3 4 22 4 25 0 35 -2 23 -4z m-1484
-56 c-101 -72 -112 -78 -55 -26 47 42 101 78 120 79 5 0 -24 -24 -65 -53z
m1366 42 c-22 -4 -56 -7 -75 -7 -32 1 -31 2 10 8 25 4 59 7 75 7 25 1 23 -1
-10 -8z m-4169 -43 c-9 -19 -16 -40 -16 -47 0 -7 -3 -9 -6 -6 -4 4 1 27 11 52
9 26 19 44 22 41 3 -3 -2 -21 -11 -40z m1865 7 l24 -26 -27 19 c-15 10 -28 22
-28 27 0 12 5 8 31 -20z m139 -5 c0 -6 -6 -5 -15 2 -8 7 -15 14 -15 16 0 2 7
1 15 -2 8 -4 15 -11 15 -16z m1323 -27 c-15 -22 -31 -40 -35 -41 -4 0 7 20 24
45 17 25 33 43 35 41 3 -2 -8 -22 -24 -45z m-3293 -1 c6 17 8 5 8 -40 1 -71
-13 -58 -21 21 -2 24 -2 33 1 19 l5 -25 7 25z m429 -4 c-2 -2 -15 -9 -29 -15
-24 -11 -24 -11 -6 3 16 13 49 24 35 12z m3398 -12 c-3 -3 -12 -4 -19 -1 -8 3
-5 6 6 6 11 1 17 -2 13 -5z m-1017 -62 c3 -3 -5 -1 -18 3 -16 5 -30 1 -45 -12
-18 -15 -18 -13 2 9 24 28 26 28 61 0z m420 14 c0 -2 -9 -6 -20 -9 -11 -3 -18
-1 -14 4 5 9 34 13 34 5z m-1136 -194 c-8 -7 -14 -20 -14 -27 0 -8 -10 -26
-23 -41 l-23 -26 -12 77 c-7 42 -23 100 -37 127 -14 27 -25 52 -25 56 0 3 33
-30 74 -73 62 -67 71 -81 60 -93z m612 137 c-8 -11 -24 -28 -36 -36 -16 -11
-18 -18 -10 -28 8 -9 8 -15 0 -20 -5 -3 -10 1 -10 9 0 10 -6 13 -16 9 -13 -5
-11 -10 10 -32 14 -15 26 -31 26 -37 -1 -5 -14 7 -30 26 l-30 34 48 48 c49 49
73 63 48 27z m1423 -3 c-2 -2 -15 -9 -29 -16 -23 -12 -24 -12 -11 3 7 10 20
17 29 17 8 0 13 -2 11 -4z m-1409 -26 c0 -5 -5 -10 -11 -10 -5 0 -7 5 -4 10 3
6 8 10 11 10 2 0 4 -4 4 -10z m860 6 c0 -2 -8 -10 -17 -17 -16 -13 -17 -12 -4
4 13 16 21 21 21 13z m-985 -36 c-3 -5 -12 -10 -18 -10 -7 0 -6 4 3 10 19 12
23 12 15 0z m3065 -15 c-7 -9 -15 -13 -17 -11 -7 7 7 26 19 26 6 0 6 -6 -2
-15z m-4972 -32 c-10 -2 -26 -2 -35 0 -10 3 -2 5 17 5 19 0 27 -2 18 -5z m85
0 c-7 -2 -19 -2 -25 0 -7 3 -2 5 12 5 14 0 19 -2 13 -5z m-1896 -9 c-3 -3 -12
-4 -19 -1 -8 3 -5 6 6 6 11 1 17 -2 13 -5z m3834 -11 c13 -16 12 -17 -3 -4
-10 7 -18 15 -18 17 0 8 8 3 21 -13z m-547 -73 c30 -40 42 -66 39 -80 -3 -11
-9 -20 -13 -20 -4 0 -11 -11 -14 -25 -4 -14 -11 -23 -16 -20 -5 3 -12 1 -15
-5 -4 -6 -1 -9 7 -8 7 2 11 -4 9 -12 -2 -8 -5 -31 -6 -50 -2 -49 -21 -90 -42
-91 -11 0 -13 -3 -5 -6 6 -2 9 -9 6 -14 -4 -6 -11 -6 -19 1 -22 18 12 110 40
110 17 0 20 17 5 22 -16 5 -24 177 -9 194 7 8 9 17 5 21 -3 3 -6 1 -6 -5 0 -7
-5 -12 -11 -12 -5 0 -9 8 -7 18 1 9 -1 23 -5 30 -5 7 -4 12 2 12 6 0 31 -27
55 -60z m590 24 c3 -8 1 -14 -3 -14 -5 0 -12 7 -15 16 -3 8 -11 12 -17 8 -8
-4 -9 -3 -5 4 8 14 33 5 40 -14z m496 6 c-6 -11 -12 -20 -14 -20 -2 0 -2 9 1
20 3 11 9 20 15 20 5 0 4 -9 -2 -20z m-5183 4 c-3 -3 -12 -4 -19 -1 -8 3 -5 6
6 6 11 1 17 -2 13 -5z m4612 -25 c-25 -16 -33 -9 -13 10 10 10 21 14 23 8 2
-5 -3 -13 -10 -18z m2207 6 c-26 -19 -42 -19 -26 0 7 8 20 15 29 15 13 -1 13
-3 -3 -15z m-1615 -22 c13 -16 12 -17 -3 -4 -17 13 -22 21 -14 21 2 0 10 -8
17 -17z m-3778 -146 c68 -86 74 -97 57 -97 -17 0 -121 110 -115 120 3 5 -4 11
-14 15 -11 3 -18 12 -15 19 3 7 -2 16 -10 19 -9 4 -16 16 -16 27 0 11 -7 23
-15 26 -8 4 -15 11 -15 17 0 17 74 -59 143 -146z m4342 96 c-9 -37 -18 -20 -9
19 4 18 9 27 11 20 3 -7 2 -24 -2 -39z m715 31 c0 -2 -7 -4 -15 -4 -8 0 -15 4
-15 10 0 5 7 7 15 4 8 -4 15 -8 15 -10z m-5017 -1 c-13 -2 -35 -2 -50 0 -16 2
-5 4 22 4 28 0 40 -2 28 -4z m4144 -65 c-3 -8 -6 -5 -6 6 -1 11 2 17 5 13 3
-3 4 -12 1 -19z m-1434 -23 c19 -40 22 -69 6 -60 -6 4 -8 14 -5 22 3 8 1 11
-4 8 -9 -6 -30 33 -30 56 0 20 17 7 33 -26z m-3081 -90 c9 -17 9 -18 -3 -8 -8
6 -22 26 -32 45 l-19 33 21 -25 c12 -14 27 -34 33 -45z m3042 -100 c-4 -8 -10
-15 -14 -15 -5 0 -16 -7 -24 -16 -9 -8 -21 -14 -27 -12 -8 3 -7 9 3 19 9 8 23
30 33 49 17 33 18 34 26 12 5 -12 6 -29 3 -37z m-2566 27 c9 9 15 9 24 0 18
-18 -9 -34 -35 -21 -10 6 -25 8 -33 5 -8 -3 -14 -2 -14 3 0 15 13 20 30 11 11
-6 21 -5 28 2z m3082 -17 c5 3 14 -1 22 -8 7 -7 24 -20 37 -29 24 -17 65 -113
55 -129 -3 -5 3 -28 14 -51 10 -24 17 -49 14 -57 -3 -9 0 -11 9 -5 12 7 12 5
0 -9 -18 -23 -30 -21 -24 3 4 14 0 20 -10 20 -17 0 -57 58 -57 84 0 9 5 16 10
16 6 0 10 5 10 11 0 6 -7 8 -16 5 -12 -5 -15 -2 -10 10 5 14 4 15 -9 4 -16
-14 -25 -10 -29 12 -1 7 -10 28 -19 46 -12 22 -14 32 -5 32 9 0 9 3 0 12 -7 7
-12 21 -11 33 0 11 3 14 6 7 2 -6 8 -10 13 -7z m-4170 -25 c0 -5 -2 -10 -4
-10 -3 0 -8 5 -11 10 -3 6 -1 10 4 10 6 0 11 -4 11 -10z m3756 -5 c4 -8 2 -21
-4 -28 -5 -6 -13 -23 -17 -36 -10 -32 -57 -83 -67 -73 -9 9 59 152 73 152 5 0
12 -7 15 -15z m-2889 -1 c-3 -3 -12 -4 -19 -1 -8 3 -5 6 6 6 11 1 17 -2 13 -5z
m4200 -26 c-3 -7 -5 -2 -5 12 0 14 2 19 5 13 2 -7 2 -19 0 -25z m-4010 -25 c2
-6 -3 -13 -11 -16 -10 -4 -14 0 -13 14 1 20 18 21 24 2z m2737 -34 c16 -83 -2
-206 -30 -195 -8 3 -13 2 -10 -3 11 -17 -21 -31 -80 -37 -84 -8 -163 -8 -170
-1 -10 10 16 37 57 57 20 11 43 25 50 32 8 7 26 19 42 27 15 8 27 18 27 23 0
16 87 126 101 127 4 1 9 -13 13 -30z m-1480 5 c3 -8 2 -12 -4 -9 -6 3 -10 10
-10 16 0 14 7 11 14 -7z m-2945 -6 c-5 -29 23 -68 93 -131 40 -37 68 -67 63
-67 -6 0 -55 46 -109 101 -56 58 -90 98 -77 94 12 -4 21 -2 21 4 0 6 2 11 5
11 3 0 5 -6 4 -12z m45 -7 c4 -5 -3 -7 -14 -4 -23 6 -26 13 -6 13 8 0 17 -4
20 -9z m1616 -6 c10 -12 9 -15 -4 -15 -10 0 -15 4 -12 9 4 5 0 12 -6 14 -8 4
-9 6 -2 6 6 1 17 -6 24 -14z m6210 -18 c0 -2 -10 -12 -22 -23 l-23 -19 19 23
c18 21 26 27 26 19z m-6235 -27 c3 -6 -1 -7 -9 -4 -18 7 -21 14 -7 14 6 0 13
-4 16 -10z m3025 -10 c0 -5 -4 -10 -10 -10 -5 0 -10 5 -10 10 0 6 5 10 10 10
6 0 10 -4 10 -10z m22 -57 c6 -150 6 -198 -3 -275 -11 -105 -17 -122 -34 -108
-6 5 -15 7 -18 3 -4 -3 -7 9 -8 28 0 28 -2 30 -9 14 -5 -11 -9 -32 -9 -47 -1
-16 -5 -28 -11 -28 -6 0 -9 3 -9 8 3 18 -2 22 -21 12 -16 -9 -18 -8 -14 5 3 8
10 13 14 10 4 -3 11 7 15 22 3 16 10 30 14 33 13 8 93 179 89 190 -2 6 -23
-29 -48 -77 -25 -48 -64 -108 -87 -133 -24 -25 -49 -54 -56 -64 -9 -12 -16
-15 -21 -8 -3 6 -1 16 6 24 46 48 148 296 148 360 0 35 19 68 40 68 16 0 20
-7 22 -37z m-1302 12 c7 -8 8 -15 2 -15 -5 0 -15 7 -22 15 -7 8 -8 15 -2 15 5
0 15 -7 22 -15z m-2680 -40 c33 -17 40 -28 13 -18 -23 8 -60 33 -50 33 5 0 21
-7 37 -15z m977 -7 c-3 -8 -6 -5 -6 6 -1 11 2 17 5 13 3 -3 4 -12 1 -19z
m1813 -66 c0 -9 -88 73 -89 83 -1 5 19 -11 44 -35 25 -24 45 -46 45 -48z
m4472 23 c11 -21 8 -18 -32 30 -24 29 -24 29 -2 10 13 -11 28 -29 34 -40z
m-6940 16 l23 -10 -25 0 c-14 0 -38 6 -55 14 l-30 14 32 -4 c17 -3 42 -9 55
-14z m3929 -28 c13 -16 12 -17 -3 -4 -10 7 -18 15 -18 17 0 8 8 3 21 -13z m23
-39 c3 -8 2 -12 -4 -9 -6 3 -10 10 -10 16 0 14 7 11 14 -7z m-4166 -1 c-16 -2
-40 -2 -55 0 -16 2 -3 4 27 4 30 0 43 -2 28 -4z m3474 -15 c-4 -4 -68 -10
-142 -13 -90 -5 -132 -4 -125 3 6 6 19 12 29 14 37 6 245 3 238 -4z m-4042
-13 c7 -8 8 -15 2 -15 -5 0 -15 7 -22 15 -7 8 -8 15 -2 15 5 0 15 -7 22 -15z
m3350 -48 c0 -5 -13 5 -30 21 -16 17 -30 34 -30 38 0 4 14 -5 30 -21 17 -16
30 -33 30 -38z m789 36 c-5 -15 -22 -48 -36 -73 -22 -39 -30 -46 -50 -42 -18
3 -23 10 -20 22 3 12 -2 20 -14 23 -14 4 -19 0 -19 -16 0 -16 -3 -18 -11 -10
-20 20 -4 37 50 56 29 10 55 26 58 35 7 20 23 32 40 32 9 0 10 -7 2 -27z
m-4095 -54 c10 -21 11 -29 3 -26 -7 2 -13 13 -15 25 -2 12 -8 22 -13 22 -5 0
-9 5 -9 11 0 17 18 1 34 -32z m-554 6 c-7 -9 -15 -13 -17 -11 -7 7 7 26 19 26
6 0 6 -6 -2 -15z m343 -22 c-7 -2 -21 -2 -30 0 -10 3 -4 5 12 5 17 0 24 -2 18
-5z m4132 -13 c-3 -5 -10 -10 -16 -10 -5 0 -9 5 -9 10 0 6 7 10 16 10 8 0 12
-4 9 -10z m-4550 -10 c3 -5 1 -10 -4 -10 -6 0 -11 5 -11 10 0 6 2 10 4 10 3 0
8 -4 11 -10z m5935 -23 c0 -2 -12 -14 -27 -28 l-28 -24 24 28 c23 25 31 32 31
24z m-1682 -21 c9 -10 11 -36 2 -36 -4 0 -11 7 -14 16 -3 8 -10 13 -15 9 -6
-3 -25 1 -43 9 l-33 15 48 -4 c27 -2 51 -6 55 -9z m-4118 -6 c21 -13 10 -18
-29 -13 -23 4 -29 8 -20 14 18 11 30 11 49 -1z m4510 4 c0 -7 -54 -74 -60 -74
-3 0 -7 13 -8 28 -2 21 4 32 20 40 25 12 48 15 48 6z m-3975 -14 c3 -5 2 -10
-4 -10 -5 0 -13 5 -16 10 -3 6 -2 10 4 10 5 0 13 -4 16 -10z m-482 -22 c21
-21 42 -58 33 -58 -3 0 -19 18 -36 40 -35 44 -34 52 3 18z m4367 -8 c0 -5 -2
-10 -4 -10 -3 0 -8 5 -11 10 -3 6 -1 10 4 10 6 0 11 -4 11 -10z m-3880 -10 c0
-5 -7 -7 -15 -4 -8 4 -15 8 -15 10 0 2 7 4 15 4 8 0 15 -4 15 -10z m3323 -20
c25 0 28 -3 22 -22 -3 -13 -3 -18 2 -13 15 18 35 16 40 -5 3 -11 9 -17 14 -14
5 3 7 10 4 15 -4 5 -1 9 5 9 7 0 10 -6 7 -12 -2 -7 3 -21 11 -31 27 -31 -6
-46 -75 -34 -27 4 -67 52 -59 72 3 8 -1 21 -9 29 -8 8 -15 18 -15 22 0 5 5 3
12 -4 7 -7 25 -12 41 -12z m407 11 c0 -6 -4 -13 -10 -16 -5 -3 -10 1 -10 9 0
9 5 16 10 16 6 0 10 -4 10 -9z m-4150 -11 c0 -5 -5 -10 -11 -10 -5 0 -7 5 -4
10 3 6 8 10 11 10 2 0 4 -4 4 -10z m4295 -50 c-3 -5 -10 -10 -16 -10 -5 0 -9
5 -9 10 0 6 7 10 16 10 8 0 12 -4 9 -10z m1235 6 c0 -2 -8 -10 -17 -17 -16
-13 -17 -12 -4 4 13 16 21 21 21 13z m-1631 -25 c14 -25 1 -35 -15 -13 -16 20
-17 32 -4 32 5 0 14 -8 19 -19z m610 -21 c-13 -16 -25 -28 -27 -25 -5 5 37 55
45 55 2 0 -6 -13 -18 -30z m221 -4 c0 -8 -4 -18 -10 -21 -5 -3 -10 3 -10 14 0
12 5 21 10 21 6 0 10 -6 10 -14z m-2920 0 c0 -2 -7 -7 -16 -10 -8 -3 -12 -2
-9 4 6 10 25 14 25 6z m2153 -21 c-3 -9 -8 -14 -10 -11 -3 3 -2 9 2 15 9 16
15 13 8 -4z m732 6 c3 -6 -4 -15 -15 -21 -22 -12 -23 -10 -14 14 7 18 20 21
29 7z m-659 -41 c-11 -3 -21 -17 -23 -30 -4 -29 -13 -40 -13 -17 0 10 -4 17
-8 17 -6 0 -9 40 -3 46 1 0 16 -2 33 -4 26 -4 29 -6 14 -12z m497 -11 c-17
-17 -37 -1 -22 17 8 10 15 12 23 4 7 -7 7 -13 -1 -21z m-2396 15 c-3 -3 -12
-4 -19 -1 -8 3 -5 6 6 6 11 1 17 -2 13 -5z m2371 -26 c10 -10 17 -10 32 0 17
10 24 9 42 -8 12 -11 19 -20 15 -20 -4 0 -3 -9 3 -20 8 -15 17 -19 31 -15 12
4 21 1 25 -10 8 -20 -37 -125 -53 -125 -7 0 -12 -3 -12 -7 3 -20 -2 -33 -14
-33 -8 0 -11 14 -9 45 3 28 8 43 15 38 7 -4 8 2 3 18 -4 13 -10 36 -13 52 -3
15 -9 27 -13 27 -4 0 -23 -21 -41 -46 -19 -25 -45 -57 -59 -72 l-25 -26 -3 42
c-3 43 -16 55 -27 25 -9 -29 -60 -79 -94 -94 -17 -8 -31 -17 -31 -21 0 -11
-123 -68 -145 -67 -16 1 -16 2 5 8 14 4 24 13 23 18 -1 6 8 9 20 7 12 -2 17
-2 10 2 -7 3 -9 12 -6 20 3 9 -2 14 -15 14 -20 0 -36 23 -25 34 3 3 18 3 32 0
17 -4 22 -2 13 3 -9 7 -5 16 18 36 16 15 35 27 40 27 11 0 60 29 70 41 3 3 21
14 40 25 19 10 55 36 80 56 51 42 51 43 68 26z m142 -18 c0 -5 -4 -10 -10 -10
-5 0 -10 5 -10 10 0 6 5 10 10 10 6 0 10 -4 10 -10z m36 -21 c-6 -19 -13 -24
-18 -16 -4 6 -2 14 4 18 6 4 8 11 5 16 -3 5 0 10 7 10 10 0 11 -7 2 -28z
m-4376 7 c0 -3 -13 -14 -30 -26 -16 -12 -30 -18 -30 -13 0 4 12 15 28 25 32
19 32 19 32 14z m3490 -6 c0 -5 -4 -10 -10 -10 -5 0 -10 5 -10 10 0 6 5 10 10
10 6 0 10 -4 10 -10z m-3699 -27 c13 -16 12 -17 -3 -4 -10 7 -18 15 -18 17 0
8 8 3 21 -13z m1489 -6 c0 -2 -10 -12 -22 -23 l-23 -19 19 23 c18 21 26 27 26
19z m-1355 -17 c-3 -5 -11 -10 -16 -10 -6 0 -7 5 -4 10 3 6 11 10 16 10 6 0 7
-4 4 -10z m-320 -10 c-27 -12 -43 -12 -25 0 8 5 22 9 30 9 10 0 8 -3 -5 -9z
m240 -20 c16 -16 24 -30 19 -30 -6 0 -23 14 -39 30 -16 17 -24 30 -19 30 6 0
23 -13 39 -30z m555 4 c0 -9 -28 -3 -46 11 -17 13 -16 14 14 4 17 -6 32 -13
32 -15z m3830 -109 c-13 -78 -22 -101 -63 -162 -32 -49 -43 -58 -52 -43 -5 8
-14 5 -28 -7 -20 -18 -20 -18 -13 7 4 14 10 35 13 48 3 13 12 22 22 21 28 -2
34 1 23 14 -13 15 -19 88 -8 105 4 7 2 12 -6 12 -7 0 1 9 17 19 17 10 46 35
65 55 43 46 48 34 30 -69z m-4750 75 c0 -5 -5 -10 -11 -10 -5 0 -7 5 -4 10 3
6 8 10 11 10 2 0 4 -4 4 -10z m2663 -6 c-5 -14 -33 -11 -60 5 -14 9 -10 11 23
9 29 -1 40 -6 37 -14z m-2603 -4 c0 -6 9 -6 26 0 32 13 43 13 24 0 -13 -9 -13
-10 0 -11 8 -1 -5 -5 -30 -9 -25 -4 -54 -10 -65 -14 -13 -5 -11 -2 5 8 16 10
19 15 10 16 -13 0 -13 1 0 10 19 12 30 13 30 0z m1670 6 c0 -2 -8 -10 -17 -17
-16 -13 -17 -12 -4 4 13 16 21 21 21 13z m-1505 -36 c13 -5 14 -9 5 -9 -8 0
-24 4 -35 9 -13 5 -14 9 -5 9 8 0 24 -4 35 -9z m1465 -20 c-6 -11 -13 -20 -16
-20 -2 0 0 9 6 20 6 11 13 20 16 20 2 0 0 -9 -6 -20z m-1262 -17 c-10 -2 -26
-2 -35 0 -10 3 -2 5 17 5 19 0 27 -2 18 -5z m4350 -43 c-14 -22 -24 -19 -15 5
4 8 11 15 17 15 6 0 6 -7 -2 -20z m-1378 -10 c0 -5 -2 -10 -4 -10 -3 0 -8 5
-11 10 -3 6 -1 10 4 10 6 0 11 -4 11 -10z m-3444 -63 c28 -3 73 -14 100 -26
27 -11 56 -20 64 -18 41 5 140 -16 156 -34 19 -21 73 -39 117 -39 15 0 27 -6
27 -12 1 -8 6 -6 14 5 14 18 46 24 46 7 0 -5 -8 -14 -17 -19 -15 -9 -15 -10
-2 -11 8 0 20 5 27 12 8 8 15 8 27 -2 30 -25 0 -29 -85 -13 -47 9 -97 16 -112
17 -14 1 -24 4 -22 7 6 10 -48 29 -76 28 -14 -1 -42 3 -62 9 -27 7 -40 7 -44
0 -4 -7 -2 -8 4 -4 7 4 12 2 12 -3 0 -6 18 -18 40 -27 23 -9 39 -18 36 -21 -7
-7 -80 27 -105 50 -13 12 -21 16 -17 10 4 -7 5 -13 2 -13 -15 0 -206 94 -206
101 0 5 6 7 13 4 6 -2 35 -6 63 -8z m204 3 c8 -5 11 -10 5 -10 -5 0 -17 5 -25
10 -8 5 -10 10 -5 10 6 0 17 -5 25 -10z m180 -25 c7 -8 8 -15 2 -15 -5 0 -15
7 -22 15 -7 8 -8 15 -2 15 5 0 15 -7 22 -15z m3640 -45 c0 -5 -7 -10 -16 -10
-8 0 -12 5 -9 10 3 6 10 10 16 10 5 0 9 -4 9 -10z m-3560 -30 c8 -5 11 -10 5
-10 -5 0 -17 5 -25 10 -8 5 -10 10 -5 10 6 0 17 -5 25 -10z m1177 -62 c-2 -13
-4 -3 -4 22 0 25 2 35 4 23 2 -13 2 -33 0 -45z m-1337 43 c0 -5 -9 -7 -20 -4
-11 3 -20 7 -20 9 0 2 9 4 20 4 11 0 20 -4 20 -9z m4319 -56 c-71 -74 -98 -87
-45 -21 20 23 36 47 36 52 0 10 37 31 59 33 7 0 -15 -28 -50 -64z m-3640 -31
c2 -2 -19 -4 -48 -4 -29 0 -50 4 -47 9 5 8 85 4 95 -5z m658 -46 c-2 -13 -4
-5 -4 17 -1 22 1 32 4 23 2 -10 2 -28 0 -40z m3628 42 c25 -11 -1 -11 -35 0
-20 6 -21 8 -5 8 11 0 29 -3 40 -8z m213 -87 c-10 -2 -28 -2 -40 0 -13 2 -5 4
17 4 22 1 32 -1 23 -4z m-75 -10 c-7 -2 -21 -2 -30 0 -10 3 -4 5 12 5 17 0 24
-2 18 -5z m-3013 -117 c0 -5 6 -4 13 3 11 8 13 4 9 -22 -3 -17 -7 -25 -10 -17
-3 8 -17 31 -32 50 -39 51 -46 70 -11 30 17 -19 31 -39 31 -44z m2250 59 c0
-14 3 -14 24 1 40 26 187 -1 159 -30 -4 -3 -1 -6 5 -6 7 0 12 -9 12 -20 0 -11
8 -24 18 -27 22 -9 32 -23 32 -50 0 -16 -6 -23 -20 -23 -16 0 -19 -5 -16 -23
6 -34 -8 -50 -43 -49 -19 0 -34 -6 -40 -15 -7 -14 -13 -15 -40 -4 -18 8 -45
11 -66 7 -23 -5 -35 -3 -35 4 0 6 -5 8 -12 4 -7 -4 -8 -3 -4 4 8 13 -10 49
-36 73 -10 9 -18 21 -18 27 0 20 23 61 31 57 9 -6 23 34 15 42 -7 8 12 43 24
43 6 0 10 -7 10 -15z m-3637 -82 c-7 -2 -19 -2 -25 0 -7 3 -2 5 12 5 14 0 19
-2 13 -5z m172 -9 c-70 -19 -83 -21 -103 -10 -17 9 -9 11 46 12 37 0 62 -1 57
-2z m1363 -54 c-1 -33 -7 -60 -12 -60 -5 0 -6 17 -2 38 3 20 6 47 6 60 0 12 3
22 6 22 3 0 4 -27 2 -60z m-234 24 c3 -8 2 -12 -4 -9 -6 3 -10 10 -10 16 0 14
7 11 14 -7z m4166 -20 c0 -2 -13 2 -30 11 -16 9 -30 18 -30 21 0 2 14 -2 30
-11 17 -9 30 -18 30 -21z m-4072 14 c9 -63 10 -89 5 -127 -6 -41 -7 -42 -18
-21 -18 33 -10 160 9 160 1 0 3 -6 4 -12z m-58 -62 c0 -12 -5 -7 -19 24 -11
24 -11 24 3 6 9 -11 16 -24 16 -30z m4026 -44 c-4 -3 -14 2 -24 12 -16 18 -16
18 6 6 13 -6 21 -14 18 -18z m-3836 2 c0 -8 -5 -12 -10 -9 -6 4 -8 11 -5 16 9
14 15 11 15 -7z m-820 -25 c0 -6 -4 -7 -10 -4 -5 3 -10 11 -10 16 0 6 5 7 10
4 6 -3 10 -11 10 -16z m3848 12 c11 -7 10 -9 -3 -14 -10 -5 -14 -3 -9 5 5 7
-1 9 -17 5 -13 -3 -42 -8 -64 -11 l-40 -6 45 14 c55 17 71 18 88 7z m793 -18
c13 -15 12 -15 -8 -4 -24 12 -29 21 -14 21 5 0 15 -7 22 -17z m-4154 -15 c-3
-8 -6 -5 -6 6 -1 11 2 17 5 13 3 -3 4 -12 1 -19z m3851 15 c-10 -2 -26 -2 -35
0 -10 3 -2 5 17 5 19 0 27 -2 18 -5z m-81 -9 c-3 -3 -12 -4 -19 -1 -8 3 -5 6
6 6 11 1 17 -2 13 -5z m293 -25 c13 -7 13 -8 0 -8 -8 0 -26 6 -40 15 l-25 15
25 -7 c14 -3 32 -10 40 -15z m-925 1 c-11 -5 -27 -9 -35 -9 -9 0 -8 4 5 9 11
5 27 9 35 9 9 0 8 -4 -5 -9z m140 0 c-11 -5 -29 -8 -40 -8 -16 0 -15 2 5 8 34
11 60 11 35 0z m578 -7 c-13 -2 -33 -2 -45 0 -13 2 -3 4 22 4 25 0 35 -2 23
-4z m505 -67 c140 -116 256 -255 332 -398 46 -86 48 -120 3 -43 -60 102 -154
219 -294 364 -80 83 -142 151 -138 151 5 0 48 -33 97 -74z m-4141 22 c-3 -7
-5 -2 -5 12 0 14 2 19 5 13 2 -7 2 -19 0 -25z m3778 22 c7 -12 -2 -12 -30 0
-19 8 -19 9 2 9 12 1 25 -3 28 -9z m146 -7 c13 -15 12 -15 -11 -3 -34 17 -36
20 -18 20 9 0 22 -7 29 -17z m209 -82 c36 -33 61 -60 55 -60 -5 0 -48 36 -95
81 -47 45 -71 71 -55 60 17 -12 59 -49 95 -81z m-422 64 c12 -4 22 -12 22 -17
0 -5 -5 -6 -10 -3 -6 4 -23 4 -39 0 -23 -5 -27 -10 -23 -30 2 -14 0 -25 -6
-25 -16 0 -24 18 -10 22 8 3 4 9 -10 17 -13 7 -32 9 -45 5 -12 -5 -25 -7 -29
-6 -5 1 -8 -3 -8 -8 0 -6 -12 -8 -27 -4 -22 4 -25 3 -13 -5 18 -13 9 -14 -22
-2 -31 12 -88 -11 -88 -35 0 -15 -2 -16 -17 -2 -16 14 -20 14 -37 -3 -18 -17
-18 -18 2 -16 11 0 18 5 15 11 -3 5 -1 6 5 2 26 -16 8 -24 -85 -41 -54 -9
-111 -24 -126 -32 -16 -8 -31 -12 -34 -9 -4 3 -13 0 -22 -8 -19 -17 -301 -129
-308 -122 -3 2 13 14 35 25 49 25 62 41 27 35 -14 -2 -25 -2 -25 0 0 2 23 21
51 41 34 24 50 31 45 20 -3 -9 17 4 45 29 28 25 56 46 63 46 6 0 33 16 60 35
97 69 217 94 431 90 88 -1 170 -6 183 -10z m-668 -19 c0 -2 -7 -7 -16 -10 -8
-3 -12 -2 -9 4 6 10 25 14 25 6z m-3101 -32 c8 -7 -114 -2 -139 6 -14 4 11 5
55 2 44 -2 82 -6 84 -8z m2948 10 c-3 -3 -12 -4 -19 -1 -8 3 -5 6 6 6 11 1 17
-2 13 -5z m-79 -21 c-10 -2 -26 -2 -35 0 -10 3 -2 5 17 5 19 0 27 -2 18 -5z
m-3011 -29 c-3 -3 -12 -4 -19 -1 -8 3 -5 6 6 6 11 1 17 -2 13 -5z m3188 -4
c-3 -5 -25 -9 -48 -8 l-42 1 45 7 c25 4 46 8 48 8 2 1 0 -2 -3 -8z m1575 -10
c6 -11 8 -20 6 -20 -3 0 -10 9 -16 20 -6 11 -8 20 -6 20 3 0 10 -9 16 -20z
m-4697 3 c-7 -2 -21 -2 -30 0 -10 3 -4 5 12 5 17 0 24 -2 18 -5z m-487 -18
c-11 -8 -27 -15 -35 -15 -10 1 -7 6 9 15 33 19 50 18 26 0z m285 -2 c13 -16
12 -17 -3 -4 -17 13 -22 21 -14 21 2 0 10 -8 17 -17z m3889 7 c0 -6 -11 -8
-27 -4 -40 10 -41 14 -5 14 18 0 32 -5 32 -10z m45 0 c3 -5 1 -10 -4 -10 -6 0
-11 5 -11 10 0 6 2 10 4 10 3 0 8 -4 11 -10z m-172 -7 c-7 -2 -19 -2 -25 0 -7
3 -2 5 12 5 14 0 19 -2 13 -5z m287 -3 c10 -7 -2 -8 -40 -4 -30 4 -57 8 -59
10 -10 9 86 3 99 -6z m-840 -7 c0 -5 -17 -18 -38 -31 l-37 -23 35 31 c37 32
40 34 40 23z m-3135 -43 c3 -6 -1 -7 -9 -4 -18 7 -21 14 -7 14 6 0 13 -4 16
-10z m4880 -30 c9 -16 13 -30 11 -30 -3 0 -12 14 -21 30 -9 17 -13 30 -11 30
3 0 12 -13 21 -30z m-4826 -11 c6 -17 15 -28 20 -25 5 3 7 -3 4 -15 -3 -11 -9
-17 -14 -12 -15 15 -39 83 -30 83 5 0 14 -14 20 -31z m348 -15 c-7 -7 -169 -5
-176 2 -2 2 38 4 89 4 51 0 90 -3 87 -6z m111 -10 c12 -8 22 -21 22 -27 -1 -7
-6 -5 -13 5 -7 9 -29 21 -48 26 -29 9 -30 10 -9 11 14 1 36 -6 48 -15z m2822
13 c0 -2 -13 -13 -30 -25 -17 -13 -27 -17 -24 -8 3 7 15 18 27 24 26 13 27 13
27 9z m50 -7 c-8 -5 -19 -10 -25 -10 -5 0 -3 5 5 10 8 5 20 10 25 10 6 0 3 -5
-5 -10z m-425 -20 c4 -6 10 -8 14 -6 4 3 25 0 47 -6 35 -10 37 -12 18 -20 -16
-7 -33 -5 -65 10 -24 11 -51 22 -59 25 -9 3 -4 6 12 6 15 1 30 -4 33 -9z
m-2344 -31 c-9 -22 -10 -22 -10 -3 -1 11 2 24 6 27 12 12 14 0 4 -24z m-598
-4 c4 -8 3 -16 -1 -19 -4 -3 -9 4 -9 15 -2 23 3 25 10 4z m5712 -28 c-17 -42
-20 -71 -5 -62 21 13 9 -4 -14 -18 l-24 -16 19 61 c20 64 29 82 35 75 2 -2 -3
-20 -11 -40z m-2525 18 c-14 -8 -29 -14 -35 -14 -5 0 1 6 15 14 14 8 30 14 35
14 6 0 -1 -6 -15 -14z m2680 11 c0 -2 -8 -10 -17 -17 -16 -13 -17 -12 -4 4 13
16 21 21 21 13z m-85 -74 c-27 -27 -63 -68 -78 -91 -22 -34 -31 -40 -42 -31
-22 18 -75 8 -137 -28 -41 -22 -58 -38 -58 -52 0 -34 28 -35 63 -4 l32 29 -33
-35 c-26 -29 -35 -33 -50 -24 -10 6 -18 26 -20 47 -2 19 -10 41 -18 47 -19 16
-18 36 2 44 13 5 15 15 11 41 -4 27 -3 33 9 28 8 -3 14 1 14 10 0 8 9 25 19
38 19 23 19 24 40 5 12 -11 21 -29 21 -42 0 -13 5 -26 10 -29 6 -3 10 -14 9
-23 0 -14 -2 -13 -9 3 -8 19 -9 18 -9 -4 -1 -22 2 -23 34 -18 19 3 35 2 35 -4
0 -17 26 -9 47 14 11 12 32 32 46 44 25 21 37 46 20 41 -5 -2 -10 2 -12 7 -3
6 3 11 12 13 11 2 17 -3 17 -14 0 -14 5 -12 33 9 50 40 47 32 -8 -21z m-5675
-22 c6 0 10 5 10 12 0 6 3 9 6 6 3 -4 0 -16 -6 -28 -9 -16 -9 -20 -1 -15 7 4
18 1 26 -5 11 -9 15 -9 15 -1 0 6 -5 11 -12 11 -23 0 3 13 32 17 20 2 33 -2
36 -11 3 -8 12 -17 19 -20 10 -3 12 0 8 12 -6 15 -5 16 11 2 11 -8 24 -15 30
-16 42 -4 42 -4 27 -13 -11 -7 -7 -13 20 -24 l34 -14 -37 -8 c-34 -7 -54 -25
-27 -25 6 0 9 -7 5 -15 -3 -10 10 -23 42 -41 102 -59 127 -75 102 -68 l-25 7
25 -21 c16 -14 20 -21 11 -22 -11 0 -10 -4 5 -15 15 -12 10 -12 -26 2 -51 19
-106 49 -133 72 -16 13 -17 13 -11 -3 5 -13 -8 -9 -58 18 -36 19 -68 33 -71
30 -9 -9 -47 16 -44 28 1 7 -3 12 -10 13 -6 0 -15 4 -20 9 -4 5 -3 6 4 2 6 -3
14 -2 18 3 3 6 -3 15 -14 20 -25 14 -34 14 -26 1 3 -6 -1 -7 -10 -3 -13 4 -14
8 -4 14 10 6 6 11 -12 18 -37 13 -93 67 -85 80 9 14 -6 15 -20 1 -6 -6 -10 -3
-11 11 -2 16 2 19 15 14 9 -4 25 -8 34 -9 10 -1 26 -10 36 -19 10 -9 24 -17
30 -17 7 0 12 -8 12 -17 0 -14 -4 -12 -25 7 -24 22 -65 37 -65 24 0 -12 45
-43 63 -44 9 0 17 -5 17 -11 0 -6 6 -9 14 -6 7 3 26 -8 42 -24 15 -16 33 -29
38 -29 6 0 -8 18 -32 39 -40 36 -42 41 -40 87 l1 49 14 -32 c7 -18 18 -33 23
-33z m348 53 c-10 -2 -26 -2 -35 0 -10 3 -2 5 17 5 19 0 27 -2 18 -5z m5222
-13 c0 -5 -11 -25 -24 -44 -18 -26 -25 -32 -30 -21 -3 8 -11 15 -18 15 -9 0
-8 -3 2 -10 11 -7 12 -10 2 -10 -7 0 -20 6 -28 14 -12 13 -10 14 18 13 23 -1
32 2 30 11 -1 8 7 16 18 19 13 4 19 11 16 20 -3 8 -1 11 4 8 6 -3 10 -10 10
-15z m-5780 6 c0 -2 -13 -6 -29 -8 -17 -2 -28 -1 -25 4 5 8 54 12 54 4z m5240
-31 c0 -5 -5 -3 -10 5 -5 8 -10 20 -10 25 0 6 5 3 10 -5 5 -8 10 -19 10 -25z
m-5280 -40 c0 -5 -5 -3 -10 5 -5 8 -10 20 -10 25 0 6 5 3 10 -5 5 -8 10 -19
10 -25z m935 15 c3 -5 1 -10 -4 -10 -6 0 -11 5 -11 10 0 6 2 10 4 10 3 0 8 -4
11 -10z m-317 -39 c13 0 20 -5 17 -11 -9 -15 -67 -12 -88 4 -17 13 -16 14 15
12 18 -2 43 -4 56 -5z m149 3 c-3 -3 -12 -4 -19 -1 -8 3 -5 6 6 6 11 1 17 -2
13 -5z m-722 -44 c10 -11 16 -20 13 -20 -3 0 -13 9 -23 20 -10 11 -16 20 -13
20 3 0 13 -9 23 -20z m691 3 c7 -10 14 -21 14 -26 0 -11 -39 16 -44 30 -8 19
15 16 30 -4z m275 -10 c13 -16 12 -17 -3 -4 -17 13 -22 21 -14 21 2 0 10 -8
17 -17z m-1217 -8 c-4 -8 -11 -15 -16 -15 -6 0 -5 6 2 15 7 8 14 15 16 15 2 0
1 -7 -2 -15z m59 -23 c5 -7 14 -9 20 -6 9 5 9 4 0 -6 -10 -11 -15 -11 -29 1
-16 13 -16 12 -6 -8 7 -12 17 -24 24 -26 8 -3 9 -6 2 -6 -12 -1 -64 47 -64 59
0 12 45 6 53 -8z m747 9 c0 -5 -9 -7 -20 -4 -11 3 -20 7 -20 9 0 2 9 4 20 4
11 0 20 -4 20 -9z m187 -8 c0 -15 -19 -12 -24 3 -2 6 3 11 10 11 8 0 14 -6 14
-14z m-692 -13 c10 -11 16 -20 13 -20 -3 0 -13 9 -23 20 -10 11 -16 20 -13 20
3 0 13 -9 23 -20z m587 -13 c-2 -10 3 -26 10 -34 11 -14 11 -15 -2 -10 -8 4
-23 10 -32 13 -10 4 -18 11 -18 16 0 6 8 7 17 4 10 -4 14 -3 9 1 -4 4 -17 8
-29 8 -11 0 -22 6 -25 13 -3 10 6 13 34 10 31 -2 38 -7 36 -21z m428 2 c0 -6
-4 -7 -10 -4 -5 3 -10 11 -10 16 0 6 5 7 10 4 6 -3 10 -11 10 -16z m-357 -6
c-7 -2 -19 -2 -25 0 -7 3 -2 5 12 5 14 0 19 -2 13 -5z m136 -9 c10 -9 -95 -3
-109 6 -9 6 6 7 45 3 33 -3 62 -7 64 -9z m-744 -24 c10 -11 16 -20 13 -20 -3
0 -13 9 -23 20 -10 11 -16 20 -13 20 3 0 13 -9 23 -20z m-34 -87 c13 -16 12
-17 -3 -4 -17 13 -22 21 -14 21 2 0 10 -8 17 -17z m769 -13 c30 -16 51 -29 45
-29 -5 0 -35 13 -65 29 -30 16 -50 29 -45 29 6 0 35 -13 65 -29z m-205 2 c-3
-3 -11 0 -18 7 -9 10 -8 11 6 5 10 -3 15 -9 12 -12z m-550 -42 c-3 -5 -11 -10
-16 -10 -6 0 -7 5 -4 10 3 6 11 10 16 10 6 0 7 -4 4 -10z m115 -26 c0 -2 -9 0
-20 6 -11 6 -20 13 -20 16 0 2 9 0 20 -6 11 -6 20 -13 20 -16z m-25 -26 c7 -7
2 -8 -15 -3 -14 4 -29 12 -35 17 -7 7 -2 8 15 3 14 -4 30 -12 35 -17z m885 7
c19 -7 28 -14 20 -14 -8 0 -28 6 -45 14 -39 17 -21 18 25 0z m-55 -45 c13 -6
15 -9 5 -9 -8 0 -22 4 -30 9 -18 12 -2 12 25 0z"/>
<path d="M5243 7183 c0 -14 5 -40 12 -57 7 -17 16 -52 19 -77 7 -44 8 -46 64
-69 64 -26 103 -50 147 -91 l31 -29 -1 28 c-2 45 -29 97 -104 191 -30 38 -144
131 -161 131 -4 0 -7 -12 -7 -27z"/>
<path d="M4210 7210 c-9 -6 -10 -10 -3 -10 6 0 15 5 18 10 8 12 4 12 -15 0z"/>
<path d="M3422 6365 c0 -16 2 -22 5 -12 2 9 2 23 0 30 -3 6 -5 -1 -5 -18z"/>
<path d="M3828 6833 c-10 -2 -18 -12 -18 -20 0 -14 3 -14 20 2 17 15 26 28 18
24 -2 -1 -11 -3 -20 -6z"/>
<path d="M4472 6285 c0 -16 2 -22 5 -12 2 9 2 23 0 30 -3 6 -5 -1 -5 -18z"/>
<path d="M3786 5785 c18 -22 42 -49 55 -60 13 -11 4 4 -20 32 -23 29 -48 56
-54 60 -7 4 2 -11 19 -32z"/>
<path d="M3647 4758 c-23 -80 -33 -177 -29 -300 2 -53 6 -56 39 -30 20 15 23
28 27 107 2 50 7 102 11 117 4 15 2 36 -5 48 -6 12 -13 39 -14 61 -4 57 -11
56 -29 -3z"/>
<path d="M3915 4620 c-3 -5 -1 -10 4 -10 6 0 11 5 11 10 0 6 -2 10 -4 10 -3 0
-8 -4 -11 -10z"/>
<path d="M3885 4591 c-3 -5 -1 -12 4 -15 5 -3 11 1 15 9 6 16 -9 21 -19 6z"/>
<path d="M4056 4404 c-4 -9 -4 -19 -1 -22 2 -3 7 3 11 12 4 9 4 19 1 22 -2 3
-7 -3 -11 -12z"/>
<path d="M3580 4191 c0 -5 -10 -11 -22 -14 -12 -4 -20 -9 -16 -12 8 -8 58 13
58 25 0 5 -4 10 -10 10 -5 0 -10 -4 -10 -9z"/>
<path d="M3520 4070 c0 -5 5 -10 10 -10 6 0 10 5 10 10 0 6 -4 10 -10 10 -5 0
-10 -4 -10 -10z"/>
<path d="M3550 4043 c0 -29 12 -24 17 7 2 11 -2 20 -7 20 -6 0 -10 -12 -10
-27z"/>
<path d="M3428 4033 c-13 -3 -18 -14 -17 -36 1 -30 1 -30 8 -7 4 14 14 24 23
24 10 -1 14 4 11 12 -3 8 -6 13 -7 13 0 -1 -9 -3 -18 -6z"/>
<path d="M3470 3979 c0 -5 11 -9 25 -9 14 0 25 2 25 4 0 2 -11 6 -25 8 -14 3
-25 1 -25 -3z"/>
<path d="M3436 3965 c4 -8 7 -15 9 -15 2 0 5 7 9 15 3 9 0 15 -9 15 -9 0 -12
-6 -9 -15z"/>
<path d="M3498 3953 c7 -3 16 -2 19 1 4 3 -2 6 -13 5 -11 0 -14 -3 -6 -6z"/>
<path d="M3410 3920 c0 -5 5 -10 10 -10 6 0 10 5 10 10 0 6 -4 10 -10 10 -5 0
-10 -4 -10 -10z"/>
<path d="M4043 3584 c51 -61 69 -70 60 -31 -9 33 -33 57 -59 57 l-24 0 23 -26z"/>
<path d="M2954 3423 c-26 -3 -31 -8 -31 -32 0 -27 1 -28 29 -14 26 13 59 55
41 51 -4 0 -22 -3 -39 -5z"/>
<path d="M3011 2050 c0 -29 1 -32 10 -17 7 11 7 23 0 35 -9 14 -10 11 -10 -18z"/>
<path d="M3030 2024 c0 -8 5 -12 10 -9 19 12 10 -7 -12 -26 -13 -10 -18 -18
-11 -19 6 0 13 5 15 11 3 9 10 9 27 0 31 -17 37 -8 14 23 -22 31 -43 41 -43
20z"/>
<path d="M3064 1944 c-1 -17 5 -23 29 -28 16 -3 32 -4 35 -1 3 3 0 5 -6 5 -7
0 -12 8 -12 19 0 11 -9 20 -23 23 -17 3 -22 -1 -23 -18z"/>
<path d="M5940 4109 c0 -5 5 -7 10 -4 6 3 10 8 10 11 0 2 -4 4 -10 4 -5 0 -10
-5 -10 -11z"/>
<path d="M6565 3940 c-3 -6 1 -7 9 -4 18 7 21 14 7 14 -6 0 -13 -4 -16 -10z"/>
<path d="M6010 3844 c0 -17 22 -14 28 4 2 7 -3 12 -12 12 -9 0 -16 -7 -16 -16z"/>
<path d="M6037 3833 c-14 -13 -6 -33 12 -33 14 0 18 5 14 20 -5 21 -15 25 -26
13z"/>
<path d="M6090 3304 c0 -8 5 -12 10 -9 6 4 8 11 5 16 -9 14 -15 11 -15 -7z"/>
<path d="M5830 3130 c0 -5 5 -10 11 -10 5 0 7 5 4 10 -3 6 -8 10 -11 10 -2 0
-4 -4 -4 -10z"/>
<path d="M6011 2944 c0 -11 3 -14 6 -6 3 7 2 16 -1 19 -3 4 -6 -2 -5 -13z"/>
<path d="M6030 2930 c0 -5 5 -10 11 -10 5 0 7 5 4 10 -3 6 -8 10 -11 10 -2 0
-4 -4 -4 -10z"/>
<path d="M1888 2833 c7 -3 16 -2 19 1 4 3 -2 6 -13 5 -11 0 -14 -3 -6 -6z"/>
<path d="M5930 2518 c0 -16 5 -28 10 -28 13 0 13 20 0 40 -8 12 -10 9 -10 -12z"/>
<path d="M6762 2118 c-18 -11 -31 -22 -29 -25 5 -4 77 36 77 43 0 8 -15 2 -48
-18z"/>
<path d="M9020 1915 c-7 -9 -13 -32 -14 -53 -1 -35 1 -37 29 -37 28 0 30 3 33
38 5 55 -22 84 -48 52z"/>
<path d="M9218 1843 c-23 -27 -30 -43 -20 -43 11 0 46 50 39 56 -2 2 -11 -4
-19 -13z"/>
<path d="M9000 1790 c0 -20 24 -28 35 -10 3 5 11 7 18 5 15 -6 44 12 34 21 -3
4 -13 1 -22 -6 -10 -8 -15 -9 -15 -1 0 6 -11 11 -25 11 -18 0 -25 -5 -25 -20z"/>
<path d="M8965 1790 c3 -5 11 -10 16 -10 6 0 7 5 4 10 -3 6 -11 10 -16 10 -6
0 -7 -4 -4 -10z"/>
<path d="M3793 1806 c-4 -7 -15 -15 -22 -18 -13 -4 -12 -5 1 -10 10 -4 19 2
27 18 11 26 7 33 -6 10z"/>
</g>
</svg>
